<svg width="161" height="107" viewBox="0 0 161 107" fill="none" xmlns="http://www.w3.org/2000/svg">
<path d="M67.0604 14.9493C58.4828 23.1579 51.4746 30.0075 51.4746 30.1434C51.4746 30.2793 57.4295 36.0688 64.6956 43.0543L77.9167 55.7205H83.5061C88.8375 55.7205 89.074 55.6933 88.6225 55.2312C88.3645 54.9866 82.3882 49.2515 75.3585 42.5378C68.3287 35.797 62.5889 30.2249 62.6104 30.1162C62.6534 29.9259 62.7824 29.79 79.959 13.3457C87.2252 6.3874 93.309 0.543537 93.5025 0.353271C93.7604 0.0814629 92.6641 0.0271034 88.2355 -8.01086e-05H82.6462L67.0604 14.9493Z" fill="#FABB18"/>
<path d="M95.4372 3.88672C93.3734 5.87091 87.6765 11.3071 82.8181 15.9822C77.9381 20.6572 73.8106 24.5441 73.6386 24.6256C73.4666 24.7072 72.9722 24.4626 72.5637 24.0548L71.8113 23.321L69.1456 25.876C67.6837 27.2622 66.4799 28.5125 66.4584 28.6212C66.4154 28.7571 67.9847 30.388 69.941 32.2363L73.4881 35.661L82.9041 26.637L92.32 17.613L92.4275 36.5852L92.535 55.5845L95.9316 55.6661L99.3068 55.7476V27.9961C99.3068 12.7477 99.2853 0.271675 99.2638 0.271675C99.2208 0.271675 97.501 1.90252 95.4372 3.88672Z" fill="#FABB18"/>
<path d="M58.2466 15.7648C58.2466 18.5916 58.3111 20.9292 58.3756 20.9292C58.569 20.9292 63.836 15.9551 63.836 15.7648C63.836 15.5746 58.569 10.6005 58.3756 10.6005C58.3111 10.6005 58.2466 12.9108 58.2466 15.7648Z" fill="#FABB18"/>
<path d="M58.2466 44.7397C58.2466 47.6752 58.3326 50.0128 58.4186 49.9584C58.9345 49.7138 64.0079 44.7125 63.922 44.5494C63.75 44.1689 58.698 39.4123 58.4831 39.4123C58.3111 39.4123 58.2466 41.1519 58.2466 44.7397Z" fill="#FABB18"/>
<path d="M4.5625 89.5458H0.078125V67.1396H4.5625V78.3427L12.9062 67.1396H18L10.9219 76.5927L18 89.5458H12.9062L7.98438 80.4833L4.5625 85.0615V89.5458ZM24.5625 71.624V80.5927H29.0469C29.6615 80.5927 30.2396 80.4781 30.7812 80.249C31.3229 80.0094 31.7969 79.6865 32.2031 79.2802C32.6094 78.874 32.9271 78.4 33.1562 77.8583C33.3958 77.3063 33.5156 76.7229 33.5156 76.1083C33.5156 75.4938 33.3958 74.9156 33.1562 74.374C32.9271 73.8219 32.6094 73.3427 32.2031 72.9365C31.7969 72.5302 31.3229 72.2125 30.7812 71.9833C30.2396 71.7438 29.6615 71.624 29.0469 71.624H24.5625ZM24.5625 89.5458H20.0781V67.1396H29.0469C29.8698 67.1396 30.6615 67.249 31.4219 67.4677C32.1823 67.676 32.8906 67.9781 33.5469 68.374C34.2135 68.7594 34.8177 69.2281 35.3594 69.7802C35.9115 70.3219 36.3802 70.926 36.7656 71.5927C37.1615 72.2594 37.4635 72.9729 37.6719 73.7333C37.8906 74.4938 38 75.2854 38 76.1083C38 77.3375 37.7656 78.499 37.2969 79.5927C36.8281 80.676 36.1875 81.624 35.375 82.4365C34.5625 83.249 33.6094 83.8896 32.5156 84.3583C31.4323 84.8271 30.276 85.0615 29.0469 85.0615H24.5625V89.5458ZM45.125 89.5458H40.6406V67.1396H45.125V89.5458ZM79.0938 89.5458H74.8438V78.9208C74.8438 78.6292 74.7865 78.3531 74.6719 78.0927C74.5677 77.8323 74.4167 77.6031 74.2188 77.4052C74.0208 77.2073 73.7917 77.0563 73.5312 76.9521C73.2708 76.8375 72.9948 76.7802 72.7031 76.7802C72.4115 76.7802 72.1354 76.8375 71.875 76.9521C71.625 77.0563 71.401 77.2073 71.2031 77.4052C71.0156 77.6031 70.8646 77.8323 70.75 78.0927C70.6458 78.3531 70.5938 78.6292 70.5938 78.9208V89.5458H66.3281V78.9208C66.3281 78.6292 66.2708 78.3531 66.1562 78.0927C66.0521 77.8323 65.901 77.6031 65.7031 77.4052C65.5052 77.2073 65.276 77.0563 65.0156 76.9521C64.7552 76.8375 64.4792 76.7802 64.1875 76.7802C63.8958 76.7802 63.6198 76.8375 63.3594 76.9521C63.1094 77.0563 62.8854 77.2073 62.6875 77.4052C62.5 77.6031 62.349 77.8323 62.2344 78.0927C62.1302 78.3531 62.0781 78.6292 62.0781 78.9208V89.5458H57.8125V72.8115H58.8438L60 74.0927C60.5938 73.5927 61.2448 73.2073 61.9531 72.9365C62.6719 72.6552 63.4167 72.5146 64.1875 72.5146C64.9688 72.5146 65.7292 72.6604 66.4688 72.9521C67.2188 73.2438 67.875 73.749 68.4375 74.4677C68.6979 74.1135 68.9948 73.8115 69.3281 73.5615C69.6615 73.3115 70.0104 73.1083 70.375 72.9521C70.75 72.7958 71.1354 72.6865 71.5312 72.624C71.9271 72.551 72.3177 72.5146 72.7031 72.5146C73.5885 72.5146 74.4167 72.6813 75.1875 73.0146C75.9688 73.3479 76.6458 73.8063 77.2188 74.3896C77.8021 74.9625 78.2604 75.6396 78.5938 76.4208C78.9271 77.2021 79.0938 78.0354 79.0938 78.9208V89.5458ZM98.4219 89.5458H97.3906L95.7344 87.249C95.3281 87.6135 94.8958 87.9573 94.4375 88.2802C93.9896 88.5927 93.5156 88.8688 93.0156 89.1083C92.5156 89.3375 92 89.5198 91.4688 89.6552C90.9479 89.7906 90.4167 89.8583 89.875 89.8583C88.6979 89.8583 87.5885 89.6604 86.5469 89.2646C85.5156 88.8688 84.6094 88.2958 83.8281 87.5458C83.0573 86.7854 82.4479 85.8583 82 84.7646C81.5521 83.6708 81.3281 82.426 81.3281 81.0302C81.3281 79.7281 81.5521 78.5354 82 77.4521C82.4479 76.3583 83.0573 75.4208 83.8281 74.6396C84.6094 73.8583 85.5156 73.2542 86.5469 72.8271C87.5885 72.3896 88.6979 72.1708 89.875 72.1708C90.4167 72.1708 90.9531 72.2385 91.4844 72.374C92.0156 72.5094 92.5312 72.6969 93.0312 72.9365C93.5312 73.176 94.0052 73.4573 94.4531 73.7802C94.9115 74.1031 95.3385 74.4521 95.7344 74.8271L97.3906 72.8427H98.4219V89.5458ZM94.125 81.0302C94.125 80.4469 94.0104 79.8844 93.7812 79.3427C93.5625 78.7906 93.2604 78.3063 92.875 77.8896C92.4896 77.4625 92.0365 77.124 91.5156 76.874C91.0052 76.6135 90.4583 76.4833 89.875 76.4833C89.2917 76.4833 88.7396 76.5823 88.2188 76.7802C87.7083 76.9781 87.2604 77.2698 86.875 77.6552C86.5 78.0406 86.2031 78.5198 85.9844 79.0927C85.7656 79.6552 85.6562 80.301 85.6562 81.0302C85.6562 81.7594 85.7656 82.4104 85.9844 82.9833C86.2031 83.5458 86.5 84.0198 86.875 84.4052C87.2604 84.7906 87.7083 85.0823 88.2188 85.2802C88.7396 85.4781 89.2917 85.5771 89.875 85.5771C90.4583 85.5771 91.0052 85.4521 91.5156 85.2021C92.0365 84.9417 92.4896 84.6031 92.875 84.1865C93.2604 83.7594 93.5625 83.275 93.7812 82.7333C94.0104 82.1813 94.125 81.6135 94.125 81.0302ZM110.875 89.5458H101.125V85.2958H110.875C111.167 85.2958 111.417 85.1917 111.625 84.9833C111.833 84.775 111.938 84.525 111.938 84.2333C111.938 83.9313 111.833 83.7333 111.625 83.6396C111.417 83.5458 111.167 83.499 110.875 83.499H106.438C105.698 83.499 105.005 83.3583 104.359 83.0771C103.714 82.7958 103.151 82.4156 102.672 81.9365C102.193 81.4469 101.812 80.8792 101.531 80.2333C101.26 79.5875 101.125 78.8948 101.125 78.1552C101.125 77.4156 101.26 76.7229 101.531 76.0771C101.812 75.4313 102.193 74.8688 102.672 74.3896C103.151 73.9104 103.714 73.5354 104.359 73.2646C105.005 72.9833 105.698 72.8427 106.438 72.8427H115.078V77.0927H106.438C106.146 77.0927 105.896 77.1969 105.688 77.4052C105.479 77.6135 105.375 77.8635 105.375 78.1552C105.375 78.4573 105.479 78.7177 105.688 78.9365C105.896 79.1448 106.146 79.249 106.438 79.249H110.875C111.604 79.249 112.292 79.374 112.938 79.624C113.583 79.8635 114.146 80.2021 114.625 80.6396C115.104 81.0771 115.484 81.6031 115.766 82.2177C116.047 82.8323 116.188 83.5042 116.188 84.2333C116.188 84.9729 116.047 85.6656 115.766 86.3115C115.484 86.9469 115.104 87.5094 114.625 87.999C114.146 88.4781 113.583 88.8583 112.938 89.1396C112.292 89.4104 111.604 89.5458 110.875 89.5458ZM126.859 89.5458C125.828 89.5458 124.859 89.3531 123.953 88.9677C123.047 88.5719 122.25 88.0354 121.562 87.3583C120.885 86.6708 120.349 85.874 119.953 84.9677C119.568 84.0615 119.375 83.0927 119.375 82.0615V77.0927H117.297V72.8427H119.375V66.1552H123.625V72.8427H130.094V77.0927H123.625V82.0615C123.625 82.5094 123.708 82.9313 123.875 83.3271C124.042 83.7125 124.271 84.051 124.562 84.3427C124.854 84.6344 125.198 84.8688 125.594 85.0458C125.99 85.2125 126.411 85.2958 126.859 85.2958H130.094V89.5458H126.859ZM139.156 85.4521C139.323 85.5042 139.49 85.5406 139.656 85.5615C139.823 85.5719 139.99 85.5771 140.156 85.5771C140.573 85.5771 140.974 85.5198 141.359 85.4052C141.745 85.2906 142.104 85.1292 142.438 84.9208C142.781 84.7021 143.083 84.4417 143.344 84.1396C143.615 83.8271 143.833 83.4833 144 83.1083L147.125 86.249C146.729 86.8115 146.271 87.3167 145.75 87.7646C145.24 88.2125 144.682 88.5927 144.078 88.9052C143.484 89.2177 142.854 89.4521 142.188 89.6083C141.531 89.775 140.854 89.8583 140.156 89.8583C138.979 89.8583 137.87 89.6396 136.828 89.2021C135.797 88.7646 134.891 88.1552 134.109 87.374C133.339 86.5927 132.729 85.6656 132.281 84.5927C131.833 83.5094 131.609 82.3219 131.609 81.0302C131.609 79.7073 131.833 78.499 132.281 77.4052C132.729 76.3115 133.339 75.3792 134.109 74.6083C134.891 73.8375 135.797 73.2385 136.828 72.8115C137.87 72.3844 138.979 72.1708 140.156 72.1708C140.854 72.1708 141.536 72.2542 142.203 72.4208C142.87 72.5875 143.5 72.8271 144.094 73.1396C144.698 73.4521 145.26 73.8375 145.781 74.2958C146.302 74.7438 146.76 75.249 147.156 75.8115L139.156 85.4521ZM141.344 76.6552C141.146 76.5823 140.948 76.5354 140.75 76.5146C140.562 76.4938 140.365 76.4833 140.156 76.4833C139.573 76.4833 139.021 76.5927 138.5 76.8115C137.99 77.0198 137.542 77.3219 137.156 77.7177C136.781 78.1135 136.484 78.5927 136.266 79.1552C136.047 79.7073 135.938 80.3323 135.938 81.0302C135.938 81.1865 135.943 81.3635 135.953 81.5615C135.974 81.7594 136 81.9625 136.031 82.1708C136.073 82.3688 136.12 82.5615 136.172 82.749C136.224 82.9365 136.292 83.1031 136.375 83.249L141.344 76.6552ZM153.578 89.5458H149.312V72.8115H150.344L151.75 74.7958C152.438 74.1708 153.219 73.6917 154.094 73.3583C154.969 73.0146 155.875 72.8427 156.812 72.8427H160.578V77.0927H156.812C156.365 77.0927 155.943 77.176 155.547 77.3427C155.151 77.5094 154.807 77.7385 154.516 78.0302C154.224 78.3219 153.995 78.6656 153.828 79.0615C153.661 79.4573 153.578 79.8792 153.578 80.3271V89.5458Z" fill="#FABB18"/>
</svg>
